<?xml version="1.0" encoding="UTF-8"?>
<!-- Generator: Adobe Illustrator 23.0.3, SVG Export Plug-In . SVG Version: 6.00 Build 0)  -->
<svg version="1.1" id="Layer_1" xmlns="http://www.w3.org/2000/svg" xmlns:xlink="http://www.w3.org/1999/xlink" x="0px" y="0px" viewBox="0 0 24 24" style="enable-background:new 0 0 24 24;" xml:space="preserve">
<style type="text/css">
	.st0{fill:#A70000;}
	.st1{fill:#00A7FF;}
	.st2{fill:#E1FF33;}
	.st3{fill:none;}
	.st4{fill:#002B7C;}
	.st5{fill:#FFFFFF;}
	.st6{fill:#722AB1;}
	.st7{fill:#005F58;}
	.st8{fill:#2CFF86;}
	.st9{fill:#FF7474;}
</style>
<rect class="st9" width="24" height="24"/>
<g>
	<circle class="st5" cx="16.773" cy="11.932" r="1.227"/>
	<path class="st5" d="M10.243,8.683H8.784C7.246,8.683,6,9.93,6,11.467v1.459c0,1.537,1.246,2.784,2.784,2.784h1.459   c1.537,0,2.784-1.246,2.784-2.784v-1.459C13.026,9.93,11.78,8.683,10.243,8.683z M11.526,12.926c0,0.708-0.576,1.284-1.284,1.284   H8.784c-0.708,0-1.284-0.576-1.284-1.284v-1.459c0-0.708,0.576-1.284,1.284-1.284h1.459c0.708,0,1.284,0.576,1.284,1.284V12.926z"/>
</g>
</svg>